<svg xmlns="http://www.w3.org/2000/svg" width="195mm" height="195mm" viewBox="0 0 552.76 552.76">
  <title>アートボード 1</title>
  <g id="うさぎのコピー">
    <g>
      <path d="M224.49,163.5c-4.63,1.29-38.47,11.34-51.5,44.25-2.15,5.44-13.95,35.24,3.75,58.5,11.66,15.33,29.31,18.87,34.75,19.75-9.79,4.94-39.72,21.64-52.25,56.5-4.4,12.26-12.69,35.33-.25,57,13.22,23,40,27.38,44.25,28a54.4,54.4,0,0,0,20,21c.14.08,1.57.92,3.25,1.75,16.66,8.24,38.66,6.38,40,6.25,27.54-2.58,47.8-20,53-24.75,4.79,13.61,18,21.92,31,20.25,15.77-2,27.56-18.3,24.25-33a26.63,26.63,0,0,0-22.5-20,67.88,67.88,0,0,0-14.5,0c2.83-5.83,7-24,7.5-40.33.33-10.5-2.83-25.67-13-41.17C313.52,289,277.49,284,266,284.75c9.75-7.37,30.63-25.5,35.25-49.75,4.86-25.47-12.87-44.2-16.5-48.5,23.9-24.73,37.55-41.76,47.37-59.21,7.78-13.83,16.83-27.67,19.63-47.29,2-14,2.64-23.92-5.25-28.75-11.12-6.81-35.39,12.56-38.75,15.25a90.42,90.42,0,0,0-8.5,7.75c.52-3.56,3.2-23.5-7.25-32.25a12.8,12.8,0,0,0-4.25-2.5c-9.45-3.21-20.37,6.55-24.5,10.25C258,54.41,240.7,71.56,228.49,138,226.5,148.8,225.24,157.71,224.49,163.5Z" style="fill: #fff;stroke: #fff;stroke-miterlimit: 10;stroke-width: 14.173228263855px"/>
      <path d="M328.36,270.25a34.84,34.84,0,0,0-7.87,9.38,32.56,32.56,0,0,0-4.5,18.63,26.4,26.4,0,0,0,3.88,11.38c1.43,2.07-.95-.41,2,3.5-.75-3-4.8-7-9.75-10.87-3.31-2.58-9.93-7.58-19.62-8.12a32.18,32.18,0,0,0-15.75,3.25l3,4.75-4.5.88a28.68,28.68,0,0,0,5.13,12.75A29.16,29.16,0,0,0,291.74,325a34.29,34.29,0,0,0,13.38,3.25,37.7,37.7,0,0,0,4.25,0,32,32,0,0,0-9.12,4.5,33.12,33.12,0,0,0-10.37,12.38c-1.82,3.52-3.75,7.38-3.37,12.5a18.36,18.36,0,0,0,1,4.75h5.75l1.5,6.13A33.89,33.89,0,0,0,308,365.25a35.1,35.1,0,0,0,14.13-12.62c3.31-5.17,5.21-13.55,5.75-16.87-.31,2.91-.45,13.19,3.75,21,1.74,3.23,5.25,10.5,13.63,14a27.65,27.65,0,0,0,6.88,1.88l2.13-5.75,7.63-.25c2-8.38.44-14.11-.87-16.75-2.37-4.75-5.75-8.37-8.75-11.62-3.43-3.72-7-6.57-9.12-8.62,5.24,1.26,13.73,1.55,22.63-.5,4.92-1.13,11-2.62,15.38-8a19.76,19.76,0,0,0,3-5.12l-4.37-2.75,3.13-3.12c-3.55-2.71-10.95-7.43-20.12-6.87-5.41.32-10.3,2.41-13.75,3.88a58.56,58.56,0,0,0-9.5,5.13,38.93,38.93,0,0,0-2.75-42.5c-1,1.71-2.71,3.54-3.75,5.25C331.24,273.46,330.11,271.79,328.36,270.25Z" style="fill: #f99;stroke: #fff;stroke-miterlimit: 10;stroke-width: 8.50393676757813px"/>
      <g>
        <line x1="329.11" y1="320.5" x2="330.11" y2="297.25" style="fill: none;stroke: #fff;stroke-miterlimit: 10;stroke-width: 4.25196838378906px"/>
        <line x1="307.36" y1="314.63" x2="329.11" y2="320.25" style="fill: none;stroke: #fff;stroke-miterlimit: 10;stroke-width: 4.25196838378906px"/>
        <line x1="312.24" y1="339.38" x2="329.61" y2="319.63" style="fill: none;stroke: #fff;stroke-miterlimit: 10;stroke-width: 4.25196838378906px"/>
        <line x1="340.74" y1="341.13" x2="328.99" y2="319.88" style="fill: none;stroke: #fff;stroke-miterlimit: 10;stroke-width: 4.25196838378906px"/>
        <line x1="351.74" y1="318" x2="330.11" y2="320.38" style="fill: none;stroke: #fff;stroke-miterlimit: 10;stroke-width: 4.25196838378906px"/>
      </g>
    </g>
  </g>
  <g id="うさぎ主線">
    <g>
      <path d="M224.49,163.5c-4.63,1.29-38.47,11.34-51.5,44.25-2.15,5.44-13.95,35.24,3.75,58.5,11.66,15.33,29.31,18.87,34.75,19.75-9.79,4.94-39.72,21.64-52.25,56.5-4.4,12.26-12.69,35.33-.25,57,13.22,23,40,27.38,44.25,28a54.4,54.4,0,0,0,20,21c.14.08,1.57.92,3.25,1.75,16.66,8.24,38.66,6.38,40,6.25,27.54-2.58,47.8-20,53-24.75,4.79,13.61,18,21.92,31,20.25,15.77-2,27.56-18.3,24.25-33a26.63,26.63,0,0,0-22.5-20,67.88,67.88,0,0,0-14.5,0c2.83-5.83,7-24,7.5-40.33.33-10.5-2.83-25.67-13-41.17C313.52,289,277.49,284,266,284.75c9.75-7.37,30.63-25.5,35.25-49.75,4.86-25.47-12.87-44.2-16.5-48.5,23.9-24.73,37.55-41.76,47.37-59.21,7.78-13.83,16.83-27.67,19.63-47.29,2-14,2.64-23.92-5.25-28.75-11.12-6.81-35.39,12.56-38.75,15.25a90.42,90.42,0,0,0-8.5,7.75c.52-3.56,3.2-23.5-7.25-32.25a12.8,12.8,0,0,0-4.25-2.5c-9.45-3.21-20.37,6.55-24.5,10.25C258,54.41,240.7,71.56,228.49,138,226.5,148.8,225.24,157.71,224.49,163.5Z" style="fill: #fff;stroke: #777;stroke-miterlimit: 10;stroke-width: 8.50393676757813px"/>
      <path d="M328.36,270.25a34.84,34.84,0,0,0-7.87,9.38,32.56,32.56,0,0,0-4.5,18.63,26.4,26.4,0,0,0,3.88,11.38c1.43,2.07-.95-.41,2,3.5-.75-3-4.8-7-9.75-10.87-3.31-2.58-9.93-7.58-19.62-8.12a32.18,32.18,0,0,0-15.75,3.25l3,4.75-4.5.88a28.68,28.68,0,0,0,5.13,12.75A29.16,29.16,0,0,0,291.74,325a34.29,34.29,0,0,0,13.38,3.25,37.7,37.7,0,0,0,4.25,0,32,32,0,0,0-9.12,4.5,33.12,33.12,0,0,0-10.37,12.38c-1.82,3.52-3.75,7.38-3.37,12.5a18.36,18.36,0,0,0,1,4.75h5.75l1.5,6.13A33.89,33.89,0,0,0,308,365.25a35.1,35.1,0,0,0,14.13-12.62c3.31-5.17,5.21-13.55,5.75-16.87-.31,2.91-.45,13.19,3.75,21,1.74,3.23,5.25,10.5,13.63,14a27.65,27.65,0,0,0,6.88,1.88l2.13-5.75,7.63-.25c2-8.38.44-14.11-.87-16.75-2.37-4.75-5.75-8.37-8.75-11.62-3.43-3.72-7-6.57-9.12-8.62,5.24,1.26,13.73,1.55,22.63-.5,4.92-1.13,11-2.62,15.38-8a19.76,19.76,0,0,0,3-5.12l-4.37-2.75,3.13-3.12c-3.55-2.71-10.95-7.43-20.12-6.87-5.41.32-10.3,2.41-13.75,3.88a58.56,58.56,0,0,0-9.5,5.13,38.93,38.93,0,0,0-2.75-42.5c-1,1.71-2.71,3.54-3.75,5.25C331.24,273.46,330.11,271.79,328.36,270.25Z" style="fill: #f99;stroke: #f99;stroke-miterlimit: 10;stroke-width: 0.992125988006592px"/>
      <g>
        <line x1="329.11" y1="320.5" x2="330.11" y2="297.25" style="fill: none;stroke: #fff;stroke-miterlimit: 10;stroke-width: 4.25196838378906px"/>
        <line x1="307.36" y1="314.63" x2="329.11" y2="320.25" style="fill: none;stroke: #fff;stroke-miterlimit: 10;stroke-width: 4.25196838378906px"/>
        <line x1="312.24" y1="339.38" x2="329.61" y2="319.63" style="fill: none;stroke: #fff;stroke-miterlimit: 10;stroke-width: 4.25196838378906px"/>
        <line x1="340.74" y1="341.13" x2="328.99" y2="319.88" style="fill: none;stroke: #fff;stroke-miterlimit: 10;stroke-width: 4.25196838378906px"/>
        <line x1="351.74" y1="318" x2="330.11" y2="320.38" style="fill: none;stroke: #fff;stroke-miterlimit: 10;stroke-width: 4.25196838378906px"/>
      </g>
    </g>
  </g>
  <g id="文字">
    <g>
      <path d="M121.88,504.76q0,4.1,3.17,4.1a2.9,2.9,0,0,0,1.91-.68,4.23,4.23,0,0,0,1.26-1.91,8.43,8.43,0,0,0,.43-2.81v-9.65a10,10,0,0,1,.86-4.28,6.46,6.46,0,0,1,2.52-2.84,7.33,7.33,0,0,1,3.89-1,9.6,9.6,0,0,1,6,1.69q2.16,1.69,2.16,6.23v18.72q0,4.39-1.8,6T136,520a12,12,0,0,1-3.31-.4,5.18,5.18,0,0,1-2.2-1.19,5,5,0,0,1-1.26-2.09,19.67,19.67,0,0,1-6.23,2.74,31.08,31.08,0,0,1-7.31.79q-5.11,0-7.34-4t-2.23-13.14q0-4.54.22-7.38a33.76,33.76,0,0,1,.68-4.9,6.39,6.39,0,0,1,1.44-3.06,5.52,5.52,0,0,1,2.3-1.44,11.6,11.6,0,0,1,3.49-.43q4,0,5.8,1.51a5.65,5.65,0,0,1,1.76,4.54Z" style="fill: #777;stroke: #fff;stroke-miterlimit: 10;stroke-width: 2.8346500396728516px"/>
      <path d="M168,485.11a21,21,0,0,1,11.16,2.74q4.46,2.74,4.46,6a2.41,2.41,0,0,1-.79,1.73,2.73,2.73,0,0,1-2,.79,4.79,4.79,0,0,1-2.38-.76A25.3,25.3,0,0,1,176,494a12.61,12.61,0,0,0-3-1.58,11,11,0,0,0-4-.72q-2.81,0-2.81,1.73a2.17,2.17,0,0,0,1.44,1.94,25.59,25.59,0,0,0,4.21,1.51,25.93,25.93,0,0,1,4.21,1.51q5.4,2.09,7.42,4.5a9.62,9.62,0,0,1,2,6.37,7.75,7.75,0,0,1-1.08,3.85,12.44,12.44,0,0,1-3.24,3.6,16.89,16.89,0,0,1-5.87,2.74,31.3,31.3,0,0,1-8.46,1q-9.29,0-13.9-4.25a6,6,0,0,1-2.23-4.32,2.73,2.73,0,0,1,.9-2.16,3.74,3.74,0,0,1,2.56-.79,13.42,13.42,0,0,1,5,1.62,14.62,14.62,0,0,0,6.26,1.62q4,0,4-1.94,0-1-2.09-1.62t-5.47-1.48a18.53,18.53,0,0,1-5.4-2.16,8.22,8.22,0,0,1-5.69-8.42q0-5,4.79-8.24T168,485.11Z" style="fill: #777;stroke: #fff;stroke-miterlimit: 10;stroke-width: 2.8346500396728516px"/>
      <path d="M204.54,520.39a11.62,11.62,0,0,1-9.43-4.64q-3.74-4.64-3.74-12.71T195.07,490a11.42,11.42,0,0,1,9.47-4.86,16.61,16.61,0,0,1,10.8,4.1,6.6,6.6,0,0,1,6.26-3.6,9.6,9.6,0,0,1,6,1.69q2.16,1.69,2.16,6.23v18.72q0,4.32-1.8,6T221.67,520q-4.75,0-6.26-2.66A19,19,0,0,1,204.54,520.39Zm9.79-24.26a3.62,3.62,0,0,0-3.17-2.09q-1.87,0-3,2.74A16,16,0,0,0,207,503a15.23,15.23,0,0,0,1.08,5.9q1.08,2.59,3,2.59a3.7,3.7,0,0,0,3.24-1.94Z" style="fill: #777;stroke: #fff;stroke-miterlimit: 10;stroke-width: 2.8346500396728516px"/>
      <path d="M257.82,493q0-1.66-1.87-1.66a3,3,0,0,0-2.45,1.51,11.18,11.18,0,0,0-1.66,3.78,19.05,19.05,0,0,0-.58,4.72,7.62,7.62,0,0,0,8.14,8.06,20.63,20.63,0,0,0,6.34-.86,13.84,13.84,0,0,0,2.63-1.08,5.91,5.91,0,0,1,2.2-.79,3.38,3.38,0,0,1,1.66.36,2.11,2.11,0,0,1,.9.86,2.4,2.4,0,0,1,.25,1.08,6,6,0,0,1-.68,2.45,12.73,12.73,0,0,1-2.12,3,19.92,19.92,0,0,1-3.35,2.92,16.83,16.83,0,0,1-4.72,2.2,20,20,0,0,1-5.9.86q-8.93,0-14.69-4.79t-5.76-13.14A16.18,16.18,0,0,1,246,487.16a25.77,25.77,0,0,1,10.58-2.05,28.17,28.17,0,0,1,9.4,1.33,10.69,10.69,0,0,1,5.29,3.56,9,9,0,0,1,1.58,5.33,8,8,0,0,1-.54,2.81,11.09,11.09,0,0,1-1.66,2.88,7.84,7.84,0,0,1-3.28,2.34,13,13,0,0,1-5,.9,12.73,12.73,0,0,1-2.12-.14,6,6,0,0,1-1.73-.61,2.85,2.85,0,0,1-1.33-1.55,7.44,7.44,0,0,1-.43-2.74,14.09,14.09,0,0,1,.54-3.49A13.88,13.88,0,0,0,257.82,493Z" style="fill: #777;stroke: #fff;stroke-miterlimit: 10;stroke-width: 2.8346500396728516px"/>
      <path d="M295.47,509.08q0,5.83-1.94,8.35t-6,2.52q-4,0-5.9-2.27t-1.87-8l-.14-30.38A12.51,12.51,0,0,1,280,476a8.2,8.2,0,0,1,1.08-2.45,5.85,5.85,0,0,1,1.69-1.66,7.14,7.14,0,0,1,2.2-.94,10.86,10.86,0,0,1,2.56-.29q4,0,5.94,1.58t2,6.41Z" style="fill: #777;stroke: #fff;stroke-miterlimit: 10;stroke-width: 2.8346500396728516px"/>
      <path d="M321.68,520.46a24.48,24.48,0,0,1-10.12-2,16.43,16.43,0,0,1-9.9-15.48q0-8.21,5.62-13t14.4-4.82q8.78,0,14.33,4.82t5.54,13q0,8.14-5.65,12.82T321.68,520.46Zm3.74-17.57a21.12,21.12,0,0,0-.94-6.59q-.94-2.84-2.74-2.84a2.62,2.62,0,0,0-2.16,1.44,10.2,10.2,0,0,0-1.37,3.53,22,22,0,0,0-.43,4.46,18.8,18.8,0,0,0,1,6.44q1,2.77,2.88,2.77t2.81-2.74A20.09,20.09,0,0,0,325.42,502.89Z" style="fill: #777;stroke: #fff;stroke-miterlimit: 10;stroke-width: 2.8346500396728516px"/>
      <path d="M363.29,504.76q0,4.1,3.17,4.1a2.9,2.9,0,0,0,1.91-.68,4.23,4.23,0,0,0,1.26-1.91,8.42,8.42,0,0,0,.43-2.81v-9.65a10,10,0,0,1,.86-4.28,6.47,6.47,0,0,1,2.52-2.84,7.33,7.33,0,0,1,3.89-1,9.6,9.6,0,0,1,6,1.69q2.16,1.69,2.16,6.23v18.72q0,4.39-1.8,6T377.41,520a12,12,0,0,1-3.31-.4,5.18,5.18,0,0,1-2.2-1.19,5,5,0,0,1-1.26-2.09,19.66,19.66,0,0,1-6.23,2.74,31.08,31.08,0,0,1-7.31.79q-5.11,0-7.34-4t-2.23-13.14q0-4.54.22-7.38a33.77,33.77,0,0,1,.68-4.9,6.39,6.39,0,0,1,1.44-3.06,5.51,5.51,0,0,1,2.3-1.44,11.6,11.6,0,0,1,3.49-.43q4,0,5.8,1.51a5.65,5.65,0,0,1,1.76,4.54Z" style="fill: #777;stroke: #fff;stroke-miterlimit: 10;stroke-width: 2.8346500396728516px"/>
      <path d="M430.9,509.16q0,5.83-1.94,8.32T423,520q-4.61,0-6.34-2.88a18.77,18.77,0,0,1-11.3,3.38,11.55,11.55,0,0,1-9.36-4.64q-3.75-4.65-3.74-12.71T395.91,490a11.32,11.32,0,0,1,9.43-4.86,16.19,16.19,0,0,1,9.72,3.31v-9.22q0-4.39,2.16-6.52a7.86,7.86,0,0,1,5.76-2.12q4,0,5.94,1.58t2,6.41Zm-15.7.43-.07-13.46a3.63,3.63,0,0,0-3.17-2,2.72,2.72,0,0,0-2.2,1.37,10,10,0,0,0-1.48,3.38,17.46,17.46,0,0,0-.5,4.25,15.23,15.23,0,0,0,1.08,5.9q1.08,2.59,3,2.59a3.69,3.69,0,0,0,.72-.07,4.28,4.28,0,0,0,.65-.18,3.27,3.27,0,0,0,.58-.29,2.82,2.82,0,0,0,.5-.4,4.62,4.62,0,0,0,.43-.5Z" style="fill: #777;stroke: #fff;stroke-miterlimit: 10;stroke-width: 2.8346500396728516px"/>
    </g>
  </g>
</svg>
