<svg xmlns="http://www.w3.org/2000/svg" width="195mm" height="195mm" viewBox="0 0 552.76 552.76">
  <title>アートボード 1</title>
  <g id="うさぎのコピー">
    <g>
      <path d="M236.41,155.24c-4.63,1.29-38.47,11.34-51.5,44.25-2.15,5.44-13.95,35.24,3.75,58.5,11.66,15.33,29.31,18.87,34.75,19.75-9.79,4.94-39.72,21.64-52.25,56.5-4.4,12.26-12.69,35.33-.25,57,13.22,23,40,27.38,44.25,28a54.4,54.4,0,0,0,20,21c.14.08,1.57.92,3.25,1.75,16.66,8.24,38.66,6.38,40,6.25,27.54-2.58,47.8-20,53-24.75,4.79,13.61,18,21.92,31,20.25,15.77-2,27.56-18.3,24.25-33a26.63,26.63,0,0,0-22.5-20,67.88,67.88,0,0,0-14.5,0c2.83-5.83,7-24,7.5-40.33.33-10.5-2.83-25.67-13-41.17-18.72-28.53-54.75-33.5-66.25-32.75,9.75-7.37,30.63-25.5,35.25-49.75,4.86-25.47-12.87-44.2-16.5-48.5,23.9-24.73,37.55-41.76,47.37-59.21,7.78-13.83,16.83-27.67,19.63-47.29,2-14,2.64-23.92-5.25-28.75C347.3,36.19,323,55.56,319.66,58.24a90.42,90.42,0,0,0-8.5,7.75c.52-3.56,3.2-23.5-7.25-32.25a12.8,12.8,0,0,0-4.25-2.5c-9.45-3.21-20.37,6.55-24.5,10.25-5.21,4.66-22.54,21.8-34.75,88.25C238.43,140.54,237.16,149.45,236.41,155.24Z" style="fill: #fff;stroke: #fff;stroke-miterlimit: 10;stroke-width: 14.17322826385498px"/>
      <path d="M340.29,262a34.84,34.84,0,0,0-7.87,9.38,32.56,32.56,0,0,0-4.5,18.63,26.4,26.4,0,0,0,3.88,11.38c1.43,2.07-.95-.41,2,3.5-.75-3-4.8-7-9.75-10.87-3.31-2.58-9.93-7.58-19.62-8.12a32.18,32.18,0,0,0-15.75,3.25l3,4.75-4.5.88a28.68,28.68,0,0,0,5.13,12.75,29.16,29.16,0,0,0,11.38,9.25A34.29,34.29,0,0,0,317,320a37.7,37.7,0,0,0,4.25,0,32,32,0,0,0-9.12,4.5,33.12,33.12,0,0,0-10.37,12.38c-1.82,3.52-3.75,7.38-3.37,12.5a18.36,18.36,0,0,0,1,4.75h5.75l1.5,6.13A33.89,33.89,0,0,0,319.91,357,35.1,35.1,0,0,0,334,344.37c3.31-5.17,5.21-13.55,5.75-16.87-.31,2.91-.45,13.19,3.75,21,1.74,3.23,5.25,10.5,13.63,14a27.65,27.65,0,0,0,6.88,1.88l2.13-5.75,7.63-.25c2-8.38.44-14.11-.87-16.75-2.37-4.75-5.75-8.37-8.75-11.62-3.43-3.72-7-6.57-9.12-8.62,5.24,1.26,13.73,1.55,22.63-.5,4.92-1.13,11-2.62,15.38-8a19.76,19.76,0,0,0,3-5.12L391.66,305l3.13-3.12c-3.55-2.71-10.95-7.43-20.12-6.87-5.41.32-10.3,2.41-13.75,3.88a58.56,58.56,0,0,0-9.5,5.13,38.93,38.93,0,0,0-2.75-42.5c-1,1.71-2.71,3.54-3.75,5.25C343.16,265.2,342,263.54,340.29,262Z" style="fill: #f99;stroke: #fff;stroke-miterlimit: 10;stroke-width: 8.503936767578125px"/>
      <g>
        <line x1="341.04" y1="312.24" x2="342.04" y2="288.99" style="fill: none;stroke: #fff;stroke-miterlimit: 10;stroke-width: 4.2519683837890625px"/>
        <line x1="319.29" y1="306.37" x2="341.04" y2="311.99" style="fill: none;stroke: #fff;stroke-miterlimit: 10;stroke-width: 4.2519683837890625px"/>
        <line x1="324.16" y1="331.12" x2="341.54" y2="311.37" style="fill: none;stroke: #fff;stroke-miterlimit: 10;stroke-width: 4.2519683837890625px"/>
        <line x1="352.66" y1="332.87" x2="340.91" y2="311.62" style="fill: none;stroke: #fff;stroke-miterlimit: 10;stroke-width: 4.2519683837890625px"/>
        <line x1="363.66" y1="309.74" x2="342.04" y2="312.12" style="fill: none;stroke: #fff;stroke-miterlimit: 10;stroke-width: 4.2519683837890625px"/>
      </g>
    </g>
  </g>
  <g id="うさぎ">
    <g>
      <path d="M236.41,155.24c-4.63,1.29-38.47,11.34-51.5,44.25-2.15,5.44-13.95,35.24,3.75,58.5,11.66,15.33,29.31,18.87,34.75,19.75-9.79,4.94-39.72,21.64-52.25,56.5-4.4,12.26-12.69,35.33-.25,57,13.22,23,40,27.38,44.25,28a54.4,54.4,0,0,0,20,21c.14.08,1.57.92,3.25,1.75,16.66,8.24,38.66,6.38,40,6.25,27.54-2.58,47.8-20,53-24.75,4.79,13.61,18,21.92,31,20.25,15.77-2,27.56-18.3,24.25-33a26.63,26.63,0,0,0-22.5-20,67.88,67.88,0,0,0-14.5,0c2.83-5.83,7-24,7.5-40.33.33-10.5-2.83-25.67-13-41.17-18.72-28.53-54.75-33.5-66.25-32.75,9.75-7.37,30.63-25.5,35.25-49.75,4.86-25.47-12.87-44.2-16.5-48.5,23.9-24.73,37.55-41.76,47.37-59.21,7.78-13.83,16.83-27.67,19.63-47.29,2-14,2.64-23.92-5.25-28.75C347.3,36.19,323,55.56,319.66,58.24a90.42,90.42,0,0,0-8.5,7.75c.52-3.56,3.2-23.5-7.25-32.25a12.8,12.8,0,0,0-4.25-2.5c-9.45-3.21-20.37,6.55-24.5,10.25-5.21,4.66-22.54,21.8-34.75,88.25C238.43,140.54,237.16,149.45,236.41,155.24Z" style="fill: #fff;stroke: #777;stroke-miterlimit: 10;stroke-width: 8.503936767578125px"/>
      <path d="M340.29,262a34.84,34.84,0,0,0-7.87,9.38,32.56,32.56,0,0,0-4.5,18.63,26.4,26.4,0,0,0,3.88,11.38c1.43,2.07-.95-.41,2,3.5-.75-3-4.8-7-9.75-10.87-3.31-2.58-9.93-7.58-19.62-8.12a32.18,32.18,0,0,0-15.75,3.25l3,4.75-4.5.88a28.68,28.68,0,0,0,5.13,12.75,29.16,29.16,0,0,0,11.38,9.25A34.29,34.29,0,0,0,317,320a37.7,37.7,0,0,0,4.25,0,32,32,0,0,0-9.12,4.5,33.12,33.12,0,0,0-10.37,12.38c-1.82,3.52-3.75,7.38-3.37,12.5a18.36,18.36,0,0,0,1,4.75h5.75l1.5,6.13A33.89,33.89,0,0,0,319.91,357,35.1,35.1,0,0,0,334,344.37c3.31-5.17,5.21-13.55,5.75-16.87-.31,2.91-.45,13.19,3.75,21,1.74,3.23,5.25,10.5,13.63,14a27.65,27.65,0,0,0,6.88,1.88l2.13-5.75,7.63-.25c2-8.38.44-14.11-.87-16.75-2.37-4.75-5.75-8.37-8.75-11.62-3.43-3.72-7-6.57-9.12-8.62,5.24,1.26,13.73,1.55,22.63-.5,4.92-1.13,11-2.62,15.38-8a19.76,19.76,0,0,0,3-5.12L391.66,305l3.13-3.12c-3.55-2.71-10.95-7.43-20.12-6.87-5.41.32-10.3,2.41-13.75,3.88a58.56,58.56,0,0,0-9.5,5.13,38.93,38.93,0,0,0-2.75-42.5c-1,1.71-2.71,3.54-3.75,5.25C343.16,265.2,342,263.54,340.29,262Z" style="fill: #f99;stroke: #f99;stroke-miterlimit: 10;stroke-width: 0.9921259880065918px"/>
      <g>
        <line x1="341.04" y1="312.24" x2="342.04" y2="288.99" style="fill: none;stroke: #fff;stroke-miterlimit: 10;stroke-width: 4.2519683837890625px"/>
        <line x1="319.29" y1="306.37" x2="341.04" y2="311.99" style="fill: none;stroke: #fff;stroke-miterlimit: 10;stroke-width: 4.2519683837890625px"/>
        <line x1="324.16" y1="331.12" x2="341.54" y2="311.37" style="fill: none;stroke: #fff;stroke-miterlimit: 10;stroke-width: 4.2519683837890625px"/>
        <line x1="352.66" y1="332.87" x2="340.91" y2="311.62" style="fill: none;stroke: #fff;stroke-miterlimit: 10;stroke-width: 4.2519683837890625px"/>
        <line x1="363.66" y1="309.74" x2="342.04" y2="312.12" style="fill: none;stroke: #fff;stroke-miterlimit: 10;stroke-width: 4.2519683837890625px"/>
      </g>
    </g>
  </g>
  <g id="文字">
    <text transform="translate(114.8 511.7)" style="font-size: 72px;fill: #777;stroke: #fff;stroke-miterlimit: 10;stroke-width: 2.8346457481384277px;font-family: Coiny-Regular, Coiny">usacloud</text>
  </g>
</svg>
